<svg xmlns="http://www.w3.org/2000/svg" version="1.1" xmlns:xlink="http://www.w3.org/1999/xlink" xmlns:svgjs="http://svgjs.dev/svgjs" width="1000" height="1000" viewBox="0 0 1000 1000"><g transform="matrix(1,0,0,1,-0.14221556886212738,-0.14221556886229791)"><svg viewBox="0 0 334 334" data-background-color="#ffffff" preserveAspectRatio="xMidYMid meet" height="1000" width="1000" xmlns="http://www.w3.org/2000/svg" xmlns:xlink="http://www.w3.org/1999/xlink"><g id="tight-bounds" transform="matrix(1,0,0,1,0.04749999999998522,0.04750000000001364)"><svg viewBox="0 0 333.90454557049503 333.90454557049503" height="333.90454557049503" width="333.90454557049503"><g><svg></svg></g><g><svg viewBox="0 0 333.90454557049503 333.90454557049503" height="333.90454557049503" width="333.90454557049503"><g><path d="M0 166.952c0-92.205 74.747-166.952 166.952-166.952 92.205 0 166.952 74.747 166.953 166.952 0 92.205-74.747 166.952-166.953 166.953-92.205 0-166.952-74.747-166.952-166.953zM166.952 316.63c82.665 0 149.677-67.013 149.678-149.678 0-82.665-67.013-149.677-149.678-149.677-82.665 0-149.677 67.013-149.677 149.677 0 82.665 67.013 149.677 149.677 149.678z" data-fill-palette-color="tertiary" fill="#ff4a3f" stroke="transparent"></path><ellipse rx="160.27418187383762" ry="160.27418187383762" cx="166.95227278524752" cy="166.95227278524752" fill="#ff4a3f" stroke="transparent" stroke-width="0" fill-opacity="1" data-fill-palette-color="tertiary"></ellipse></g><g transform="matrix(1,0,0,1,88.59936727646505,71.17305217166896)"><svg viewBox="0 0 156.70581101756494 191.55844122715712" height="191.55844122715712" width="156.70581101756494"><g><svg viewBox="0 0 156.70581101756494 191.55844122715712" height="191.55844122715712" width="156.70581101756494"><g><svg viewBox="0 0 156.70581101756494 191.55844122715712" height="191.55844122715712" width="156.70581101756494"><g><svg viewBox="0 0 156.70581101756494 191.55844122715712" height="191.55844122715712" width="156.70581101756494"><g><svg viewBox="0 0 156.70581101756494 191.55844122715712" height="191.55844122715712" width="156.70581101756494"><g><svg viewBox="0 0 156.70581101756494 191.55844122715712" height="191.55844122715712" width="156.70581101756494"><g transform="matrix(1,0,0,1,0,0)"><svg width="156.70581101756494" viewBox="1.0299999713897705 -35.11000061035156 29.189998626708984 35.70000076293945" height="191.55844122715712" data-palette-color="#ffffff"><path d="M29.44-34.81L30.22 0 18.02 0.59 17.92-10.69 12.3-10.69 11.96 0 1.03 0 1.95-34.33 13.57-33.79 12.84-16.26 18.26-16.26 18.31-35.11 29.44-34.81Z" opacity="1" transform="matrix(1,0,0,1,0,0)" fill="#ffffff" class="undefined-text-0" data-fill-palette-color="quaternary" id="text-0"></path></svg></g></svg></g></svg></g></svg></g><g></g></svg></g></svg></g></svg></g></svg></g><defs></defs></svg><rect width="333.90454557049503" height="333.90454557049503" fill="none" stroke="none" visibility="hidden"></rect></g></svg></g></svg>